<?xml version="1.0" standalone="no"?>
<!DOCTYPE svg PUBLIC "-//W3C//DTD SVG 20010904//EN"
 "http://www.w3.org/TR/2001/REC-SVG-20010904/DTD/svg10.dtd">
<svg version="1.0" xmlns="http://www.w3.org/2000/svg"
 width="1024.000000pt" height="1024.000000pt" viewBox="0 0 1024.000000 1024.000000"
 preserveAspectRatio="xMidYMid meet">

<g transform="translate(0.000000,1024.000000) scale(0.100000,-0.100000)"
fill="#fcfcfcff" stroke="none">
<path d="M4072 8637 c-37 -19 -52 -38 -111 -142 -37 -66 -92 -160 -121 -210
-29 -49 -66 -115 -83 -145 -17 -30 -67 -116 -110 -190 -44 -74 -98 -165 -119
-202 -21 -38 -55 -98 -76 -135 -21 -38 -66 -114 -100 -171 -34 -56 -62 -104
-62 -106 0 -2 -18 -34 -40 -70 -22 -36 -40 -68 -40 -70 0 -2 -23 -41 -51 -86
-28 -45 -53 -97 -56 -115 -5 -31 12 -78 39 -107 7 -7 20 -26 28 -43 8 -16 27
-49 42 -72 15 -23 28 -44 28 -48 0 -4 14 -26 30 -50 17 -24 30 -46 30 -50 0
-3 23 -39 50 -81 28 -41 50 -78 50 -80 0 -3 14 -25 30 -49 17 -24 30 -48 30
-52 0 -5 8 -18 18 -29 9 -10 24 -32 32 -49 8 -16 36 -63 62 -103 27 -41 48
-75 48 -77 0 -5 79 -134 121 -198 22 -32 39 -60 39 -63 0 -2 23 -41 51 -87 29
-45 63 -102 77 -127 49 -88 -26 -80 707 -80 540 0 655 -2 664 -14 6 -7 39 -26
74 -42 124 -56 270 -31 364 63 82 82 113 215 76 324 l-19 56 176 296 175 296
51 1 c84 0 142 26 210 94 46 46 65 75 79 116 46 139 -3 302 -113 375 -87 58
-223 84 -252 50 -7 -9 -15 -13 -18 -11 -2 3 -25 -6 -51 -19 -53 -28 -109 -83
-137 -135 -11 -19 -23 -38 -28 -41 -5 -4 -6 -13 -4 -20 3 -8 -1 -27 -10 -43
-18 -36 -4 -111 34 -192 13 -28 23 -64 22 -80 -2 -28 -36 -93 -107 -204 -20
-30 -49 -80 -64 -110 -16 -30 -34 -62 -41 -70 -7 -8 -22 -35 -35 -60 -38 -77
-39 -78 -132 -85 -51 -4 -94 -3 -111 4 -29 11 -38 23 -225 327 l-126 205 34
66 c31 61 34 75 34 153 -1 90 -16 133 -73 208 -27 35 -98 82 -125 82 -10 0
-17 4 -17 9 0 5 -25 12 -55 16 -43 5 -68 2 -117 -16 -92 -32 -158 -69 -168
-93 -4 -12 -19 -37 -32 -56 -36 -53 -41 -69 -43 -155 -2 -70 1 -87 26 -141 51
-106 143 -170 263 -181 l64 -6 71 -109 c39 -60 71 -114 71 -119 0 -5 5 -9 10
-9 6 0 10 -5 10 -11 0 -6 14 -31 30 -56 17 -24 30 -46 30 -49 0 -3 14 -25 30
-49 17 -24 30 -46 30 -50 0 -4 13 -25 29 -48 37 -55 42 -89 24 -151 -16 -55
-44 -86 -77 -87 -121 -4 -798 8 -956 18 l-85 5 -359 599 -358 599 409 697 408
698 690 6 690 6 33 -25 c17 -13 32 -30 32 -37 0 -7 6 -18 14 -25 8 -6 12 -18
9 -26 -3 -8 0 -14 6 -14 6 0 11 -6 11 -13 0 -7 8 -22 18 -33 26 -28 37 -74 17
-74 -8 0 -15 -4 -15 -10 0 -5 -13 -10 -29 -10 -17 0 -33 5 -36 10 -8 13 -805
14 -805 1 0 -5 -8 -12 -19 -16 -10 -3 -49 -58 -86 -123 -37 -64 -78 -133 -90
-152 -12 -19 -35 -57 -50 -85 -16 -27 -48 -81 -73 -119 -29 -45 -45 -81 -46
-104 -1 -32 3 -36 83 -85 46 -29 86 -47 88 -42 2 6 66 114 141 240 l138 230
409 6 c226 3 676 7 1001 8 l591 1 45 -49 c61 -66 111 -97 187 -117 77 -19 157
-8 235 34 199 108 223 419 42 557 -76 58 -199 78 -279 46 -16 -6 -33 -9 -38
-6 -5 4 -19 -3 -31 -14 -12 -12 -27 -21 -33 -21 -20 0 -63 -53 -92 -115 -18
-38 -35 -61 -48 -64 -11 -2 -23 -8 -27 -14 -5 -8 -14 -7 -32 2 -18 10 -44 12
-103 6 -99 -10 -645 -13 -658 -4 -5 4 -23 9 -40 11 -18 2 -34 11 -40 24 -5 11
-68 117 -139 236 l-129 216 -96 5 c-53 3 -181 5 -286 4 -364 -2 -961 1 -1090
7 -121 5 -133 4 -173 -17z m3170 -446 c61 -23 106 -111 87 -169 -16 -47 -66
-82 -120 -82 -137 0 -191 171 -76 240 35 22 72 25 109 11z m-2372 -1236 c62
-32 96 -132 62 -183 -28 -43 -66 -60 -118 -52 -57 9 -95 37 -113 85 -39 101
73 200 169 150z m1333 4 c36 -19 77 -62 77 -81 0 -10 5 -18 10 -18 13 0 13
-37 0 -45 -6 -4 -8 -10 -6 -14 15 -24 -64 -81 -111 -81 -75 0 -141 76 -129
148 12 74 97 123 159 91z m-654 -1065 c82 -48 97 -190 24 -223 -35 -16 -119
-14 -154 5 -50 25 -75 114 -48 167 6 12 23 32 37 44 33 28 101 31 141 7z"/>
<path d="M5471 7625 c-24 -14 -76 -65 -66 -65 10 0 -144 -295 -165 -318 -12
-12 -17 -22 -13 -22 4 0 1 -6 -8 -13 -9 -7 -18 -24 -21 -39 l-5 -28 128 0 128
0 63 119 62 119 56 5 c30 3 236 6 458 7 l403 1 22 -28 c12 -15 30 -43 41 -63
10 -19 43 -72 72 -118 30 -45 54 -87 54 -92 0 -6 5 -10 10 -10 6 0 10 -5 10
-10 0 -12 102 -183 161 -271 21 -31 50 -78 65 -105 38 -70 155 -248 167 -256
6 -3 10 -29 9 -57 -1 -38 -8 -62 -29 -93 -16 -24 -35 -56 -43 -73 -8 -16 -32
-58 -52 -93 -21 -34 -38 -65 -38 -68 0 -3 -13 -24 -28 -47 -15 -23 -34 -55
-42 -72 -8 -16 -26 -48 -40 -70 -15 -22 -34 -57 -43 -77 -10 -20 -22 -40 -27
-43 -5 -3 -21 -31 -37 -63 -15 -31 -55 -103 -88 -160 -33 -57 -69 -120 -80
-140 -11 -21 -31 -55 -44 -77 -14 -22 -42 -74 -64 -115 -72 -136 -43 -129
-457 -118 -184 4 -463 8 -620 7 -157 -1 -297 -1 -312 0 -23 1 -41 23 -140 181
-62 99 -119 180 -125 180 -7 0 -13 5 -13 11 0 8 -12 9 -37 4 -64 -13 -672 -17
-734 -5 -40 7 -64 7 -87 -1 -49 -17 -89 11 -111 78 -10 28 -30 70 -44 92 -34
52 -122 121 -152 121 -13 0 -27 5 -30 10 -10 16 -120 12 -157 -7 -18 -9 -46
-23 -63 -31 -48 -23 -115 -93 -137 -142 -16 -33 -22 -71 -24 -147 -2 -63 0
-103 6 -103 6 0 10 -7 10 -16 0 -39 78 -127 145 -162 43 -23 62 -27 140 -27
78 0 97 4 141 27 28 15 66 39 84 54 l32 28 447 4 446 4 43 -60 c23 -33 42 -63
42 -67 0 -3 18 -33 40 -65 22 -32 40 -63 40 -69 0 -5 3 -11 8 -13 4 -1 21 -30
39 -63 l31 -60 803 0 803 0 443 775 c243 426 443 778 443 782 0 4 -88 153
-196 330 -108 178 -275 452 -370 609 l-173 285 -63 13 c-46 9 -142 11 -353 7
-400 -8 -631 -8 -690 -2 -33 3 -58 0 -74 -9z m-1888 -2116 c26 -27 37 -48 39
-71 2 -59 -2 -73 -30 -98 -24 -23 -34 -25 -98 -22 -71 4 -71 4 -93 42 -42 74
-19 155 53 185 46 20 86 8 129 -36z"/>
<path d="M1582 3981 l-22 -19 2 -489 3 -488 227 -3 c319 -3 418 20 532 128
101 96 146 215 146 390 0 162 -31 250 -122 346 -50 53 -156 114 -197 114 -11
0 -22 4 -25 9 -3 4 -99 11 -213 15 -114 3 -230 8 -258 11 -40 5 -54 2 -73 -14z
m509 -180 c86 -33 129 -82 178 -204 14 -35 15 -194 1 -202 -5 -3 -10 -17 -10
-31 0 -13 -4 -32 -9 -42 -5 -9 -15 -30 -22 -47 -16 -35 -76 -95 -95 -95 -14 0
-25 -4 -71 -28 -24 -13 -258 -17 -287 -6 -14 5 -16 45 -16 346 l0 340 138 -4
c110 -4 148 -9 193 -27z"/>
<path d="M2960 3989 c-74 -10 -89 -24 -110 -100 -8 -27 -17 -49 -22 -49 -4 0
-8 -11 -8 -24 0 -14 -4 -28 -10 -31 -5 -3 -10 -14 -10 -25 0 -16 -12 -45 -51
-122 -5 -10 -9 -27 -9 -38 0 -11 -4 -20 -10 -20 -5 0 -10 -9 -10 -20 0 -11 -4
-29 -10 -40 -5 -11 -14 -29 -20 -40 -5 -11 -10 -29 -10 -40 0 -11 -4 -20 -10
-20 -5 0 -10 -9 -10 -19 0 -11 -4 -23 -10 -26 -5 -3 -10 -17 -10 -31 0 -13 -4
-24 -10 -24 -5 0 -10 -9 -10 -20 0 -11 -4 -28 -9 -38 -5 -9 -13 -28 -18 -42
-6 -14 -15 -36 -20 -50 -6 -14 -15 -36 -20 -50 -6 -14 -15 -36 -21 -50 -6 -14
-13 -38 -14 -55 l-3 -30 94 0 93 0 43 115 42 115 198 0 198 0 18 -30 c10 -16
18 -38 18 -48 1 -9 5 -25 10 -35 5 -9 14 -35 21 -57 20 -64 23 -65 131 -65
l98 0 -29 78 c-26 70 -231 606 -316 828 -31 80 -38 91 -68 102 -18 7 -34 11
-37 11 -2 -1 -33 -5 -69 -10z m80 -323 c0 -15 25 -84 33 -92 4 -4 7 -15 7 -25
0 -9 8 -37 19 -61 10 -24 21 -57 25 -74 6 -26 3 -31 -23 -40 -17 -7 -35 -8
-42 -3 -19 12 -96 11 -104 -1 -3 -5 -19 -10 -35 -10 -16 0 -32 5 -35 10 -3 6
-15 10 -26 10 -12 0 -19 4 -17 8 2 5 34 94 72 200 l70 192 28 -52 c15 -28 28
-56 28 -62z"/>
<path d="M3445 3988 c-11 -6 -25 -19 -32 -27 -16 -21 -17 -113 -1 -129 8 -8
58 -12 159 -12 l147 0 11 -28 c8 -20 11 -140 9 -420 l-3 -392 98 0 97 0 0 420
0 420 155 0 155 0 0 78 c0 68 -3 79 -21 90 -16 11 -32 11 -68 3 -51 -12 -632
-10 -666 2 -11 4 -29 2 -40 -5z"/>
<path d="M8050 3993 c-74 -5 -110 -13 -110 -24 0 -10 176 -278 190 -289 12
-10 110 -162 111 -173 3 -30 -4 -62 -19 -87 -22 -35 -104 -153 -111 -160 -3
-3 -12 -15 -18 -27 -7 -13 -19 -33 -25 -45 -7 -13 -21 -30 -30 -39 -10 -9 -18
-20 -18 -25 0 -5 -11 -22 -25 -38 -14 -16 -25 -33 -25 -37 0 -4 -7 -15 -16
-24 -9 -8 -13 -22 -10 -30 4 -12 26 -15 100 -15 l94 0 110 186 109 185 30 -38
c17 -21 48 -67 70 -103 21 -36 64 -102 94 -147 l54 -83 112 0 c62 0 113 4 113
8 0 5 -13 27 -28 48 -16 21 -93 135 -171 252 l-143 214 157 235 c120 181 154
238 143 245 -7 5 -53 7 -101 6 -81 -3 -90 -5 -107 -28 -11 -14 -20 -33 -20
-42 0 -10 -4 -18 -10 -18 -5 0 -10 -5 -10 -11 0 -5 -17 -36 -38 -67 -21 -31
-49 -80 -61 -107 -13 -29 -33 -55 -46 -62 -24 -11 -27 -6 -115 139 -50 82 -93
155 -96 163 -7 16 -61 46 -78 43 -6 -1 -31 -3 -56 -5z"/>
<path d="M4646 3983 c-59 -4 -86 -19 -86 -47 0 -8 -4 -18 -10 -21 -5 -3 -10
-17 -10 -31 0 -13 -4 -24 -10 -24 -5 0 -10 -9 -10 -20 0 -11 -4 -28 -9 -38 -5
-9 -14 -30 -21 -47 -7 -16 -16 -38 -21 -47 -5 -10 -9 -25 -9 -33 0 -8 -4 -15
-10 -15 -5 0 -10 -9 -10 -20 0 -11 -5 -30 -12 -43 -24 -48 -28 -57 -28 -77 0
-11 -4 -20 -10 -20 -5 0 -10 -9 -10 -20 0 -11 -4 -29 -10 -40 -5 -11 -14 -29
-20 -40 -5 -11 -10 -29 -10 -40 0 -11 -4 -20 -10 -20 -5 0 -10 -9 -10 -20 0
-11 -4 -28 -9 -38 -39 -77 -51 -106 -51 -123 0 -10 -4 -19 -10 -19 -5 0 -10
-13 -10 -30 0 -16 -4 -30 -10 -30 -5 0 -10 -9 -10 -19 0 -11 -4 -23 -10 -26
-5 -3 -10 -17 -10 -31 0 -24 1 -24 94 -24 l93 0 45 118 44 117 196 3 c221 3
207 7 236 -83 14 -42 29 -79 43 -107 5 -10 9 -25 9 -33 0 -12 18 -15 105 -15
58 0 105 2 105 5 0 2 -58 154 -129 337 -71 183 -156 405 -190 492 -33 88 -62
160 -64 162 -7 7 -86 11 -141 7z m74 -294 c0 -10 4 -27 9 -37 5 -9 15 -37 22
-62 12 -44 41 -117 60 -152 16 -32 10 -53 -21 -66 -21 -10 -34 -10 -49 -3 -25
14 -88 14 -96 1 -3 -5 -19 -10 -35 -10 -16 0 -32 5 -35 10 -3 6 -15 10 -26 10
-10 0 -19 2 -19 4 0 3 67 195 135 385 7 18 55 -52 55 -80z"/>
<path d="M5690 3983 c-8 -3 -18 -11 -22 -17 -4 -6 -8 -230 -8 -498 l0 -488 96
0 96 0 -5 341 -4 341 25 -33 c14 -17 41 -61 59 -97 19 -35 52 -93 74 -129 21
-36 39 -69 39 -73 0 -5 3 -10 8 -12 4 -1 22 -32 41 -68 60 -115 80 -142 103
-138 16 2 55 67 167 271 144 263 146 267 153 230 4 -21 7 -172 7 -335 l1 -298
90 0 90 0 0 500 0 499 -36 7 c-84 16 -184 -13 -184 -52 0 -14 -37 -85 -49 -94
-3 -3 -15 -23 -27 -45 -27 -52 -48 -89 -54 -95 -5 -5 -43 -75 -64 -117 -6 -13
-14 -23 -18 -23 -5 0 -8 -7 -8 -15 0 -34 -48 -104 -72 -105 -4 0 -73 116 -153
258 -81 141 -153 263 -160 271 -15 15 -157 26 -185 14z"/>
<path d="M7290 3983 c-29 -11 -50 -36 -50 -59 0 -13 -4 -26 -10 -29 -5 -3 -10
-17 -10 -31 0 -13 -4 -24 -10 -24 -5 0 -10 -9 -10 -20 0 -11 -4 -28 -9 -38 -5
-9 -19 -39 -31 -67 -12 -27 -26 -58 -31 -67 -5 -10 -9 -29 -9 -43 0 -14 -4
-25 -10 -25 -5 0 -10 -7 -10 -15 0 -8 -4 -23 -9 -33 -12 -23 -26 -60 -41 -102
-17 -50 -25 -70 -48 -120 -11 -25 -26 -63 -33 -85 -18 -60 -24 -74 -58 -144
-49 -101 -49 -101 68 -101 l99 0 42 120 43 120 197 0 196 0 22 -41 c12 -22 22
-50 22 -60 0 -11 4 -27 9 -37 6 -9 18 -36 27 -59 l18 -43 98 0 c54 0 98 3 98
8 0 12 -378 983 -385 990 -9 9 -156 13 -175 5z m100 -268 c17 -32 30 -69 30
-81 0 -13 5 -26 10 -29 6 -3 10 -13 10 -21 0 -13 29 -85 51 -126 13 -25 11
-72 -3 -86 -15 -15 -54 -16 -63 -2 -9 14 -98 13 -112 -1 -9 -9 -19 -9 -40 -1
-15 6 -35 12 -44 14 -13 2 -4 37 55 200 39 108 72 195 74 194 1 -2 16 -29 32
-61z"/>
</g>
</svg>
